<mxfile host="app.diagrams.net" modified="2024-03-02T15:15:58.626Z" agent="Mozilla/5.0 (X11; Linux x86_64; rv:123.0) Gecko/20100101 Firefox/123.0" version="24.0.0" etag="MV1Zg0P-cfuXgSZBGWcE" type="github">
  <diagram name="Page-1" id="vf25jfnuN-qH4yEaStME">
    <mxGraphModel>
      <root>
        <mxCell id="0" />
        <mxCell id="1" parent="0" />
      </root>
    </mxGraphModel>
  </diagram>
</mxfile>
